SourceSerifDemo.ufo
<glyph name="exclam" format="1" >
	<unicode hex="000021"/>
	<advance width="289"/>
	<outline>
		<contour>
			<point x="145" y="-13" type="curve"/>
			<point x="181" y="-13" />
			<point x="209" y="17" />
			<point x="209" y="52" type="curve"/>
			<point x="209" y="87" />
			<point x="181" y="117" />
			<point x="145" y="117" type="curve"/>
			<point x="109" y="117" />
			<point x="80" y="87" />
			<point x="80" y="52" type="curve"/>
			<point x="80" y="17" />
			<point x="109" y="-13" />
		</contour>
		<contour>
			<point x="145" y="685" type="curve"/>
			<point x="109" y="685" />
			<point x="87" y="666" />
			<point x="87" y="622" type="curve"/>
			<point x="87" y="585" />
			<point x="98" y="491" />
			<point x="113" y="352" type="curve"/>
			<point x="126" y="215" type="line"/>
			<point x="163" y="215" type="line"/>
			<point x="177" y="352" type="line"/>
			<point x="191" y="491" />
			<point x="202" y="585" />
			<point x="202" y="622" type="curve"/>
			<point x="202" y="666" />
			<point x="180" y="685" />
		</contour>
	</outline>
</glyph>
<glyph name="quotedbl" format="1" >
	<unicode hex="000022"/>
	<advance width="356"/>
	<outline>
		<contour>
			<point x="92" y="737" type="curve"/>
			<point x="60" y="737" />
			<point x="40" y="718" />
			<point x="40" y="674" type="curve"/>
			<point x="40" y="635" />
			<point x="57" y="533" />
			<point x="62" y="500" type="curve"/>
			<point x="73" y="429" type="line"/>
			<point x="110" y="429" type="line"/>
			<point x="121" y="500" type="line"/>
			<point x="126" y="533" />
			<point x="143" y="635" />
			<point x="143" y="674" type="curve"/>
			<point x="143" y="718" />
			<point x="124" y="737" />
		</contour>
		<contour>
			<point x="264" y="737" type="curve"/>
			<point x="232" y="737" />
			<point x="212" y="718" />
			<point x="212" y="674" type="curve"/>
			<point x="212" y="635" />
			<point x="229" y="533" />
			<point x="234" y="500" type="curve"/>
			<point x="245" y="429" type="line"/>
			<point x="282" y="429" type="line"/>
			<point x="293" y="500" type="line"/>
			<point x="298" y="533" />
			<point x="315" y="635" />
			<point x="315" y="674" type="curve"/>
			<point x="315" y="718" />
			<point x="296" y="737" />
		</contour>
	</outline>
</glyph>
<glyph name="quotesingle" format="1" >
	<unicode hex="000027"/>
	<advance width="183"/>
	<outline>
		<contour>
			<point x="92" y="737" type="curve"/>
			<point x="60" y="737" />
			<point x="40" y="718" />
			<point x="40" y="674" type="curve"/>
			<point x="40" y="635" />
			<point x="57" y="533" />
			<point x="62" y="500" type="curve"/>
			<point x="73" y="429" type="line"/>
			<point x="110" y="429" type="line"/>
			<point x="121" y="500" type="line"/>
			<point x="126" y="533" />
			<point x="143" y="635" />
			<point x="143" y="674" type="curve"/>
			<point x="143" y="718" />
			<point x="124" y="737" />
		</contour>
	</outline>
</glyph>
<glyph name="parenright" format="1" >
	<unicode hex="000029"/>
	<advance width="339"/>
	<outline>
		<contour>
			<point x="179" y="278" type="curve"/>
			<point x="179" y="118" />
			<point x="143" y="1" />
			<point x="25" y="-169" type="curve"/>
			<point x="51" y="-192" type="line"/>
			<point x="192" y="-60" />
			<point x="259" y="95" />
			<point x="259" y="278" type="curve"/>
			<point x="259" y="461" />
			<point x="192" y="616" />
			<point x="51" y="748" type="curve"/>
			<point x="25" y="725" type="line"/>
			<point x="143" y="555" />
			<point x="179" y="438" />
		</contour>
	</outline>
</glyph>
<glyph name="comma" format="1" >
	<unicode hex="00002C"/>
	<advance width="300"/>
	<outline>
		<contour>
			<point x="60" y="-177" type="line"/>
			<point x="145" y="-146" />
			<point x="217" y="-72" />
			<point x="217" y="28" type="curve"/>
			<point x="217" y="51" />
			<point x="216" y="75" />
			<point x="209" y="97" type="curve"/>
			<point x="189" y="118" />
			<point x="169" y="125" />
			<point x="148" y="125" type="curve"/>
			<point x="103" y="125" />
			<point x="81" y="95" />
			<point x="81" y="58" type="curve"/>
			<point x="81" y="32" />
			<point x="94" y="14" />
			<point x="125" y="-5" type="curve"/>
			<point x="159" y="-25" type="line"/>
			<point x="142" y="-79" />
			<point x="109" y="-110" />
			<point x="45" y="-140" type="curve"/>
		</contour>
	</outline>
</glyph>
<glyph name="hyphen" format="1" >
	<unicode hex="00002D"/>
	<advance width="312"/>
	<outline>
		<contour>
			<point x="40" y="215" type="line"/>
			<point x="272" y="215" type="line"/>
			<point x="272" y="280" type="line"/>
			<point x="40" y="280" type="line"/>
		</contour>
	</outline>
</glyph>
<glyph name="two" format="1" >
	<unicode hex="000032"/>
	<advance width="500"/>
	<outline>
		<contour>
			<point x="49" y="0" type="line"/>
			<point x="460" y="0" type="line"/>
			<point x="460" y="82" type="line"/>
			<point x="125" y="82" type="line"/>
			<point x="166" y="120" />
			<point x="206" y="158" />
			<point x="233" y="185" type="curve"/>
			<point x="387" y="333" />
			<point x="431" y="402" />
			<point x="431" y="490" type="curve"/>
			<point x="431" y="590" />
			<point x="375" y="660" />
			<point x="246" y="660" type="curve"/>
			<point x="145" y="660" />
			<point x="55" y="611" />
			<point x="44" y="505" type="curve"/>
			<point x="55" y="485" />
			<point x="73" y="472" />
			<point x="95" y="472" type="curve"/>
			<point x="123" y="472" />
			<point x="140" y="492" />
			<point x="153" y="541" type="curve"/>
			<point x="172" y="610" type="line"/>
			<point x="191" y="614" />
			<point x="208" y="615" />
			<point x="221" y="615" type="curve"/>
			<point x="294" y="615" />
			<point x="341" y="563" />
			<point x="341" y="481" type="curve"/>
			<point x="341" y="403" />
			<point x="296" y="320" />
			<point x="196" y="215" type="curve"/>
			<point x="153" y="170" />
			<point x="102" y="117" />
			<point x="49" y="65" type="curve"/>
		</contour>
	</outline>
</glyph>
<glyph name="four" format="1" >
	<unicode hex="000034"/>
	<advance width="500"/>
	<outline>
		<contour>
			<point x="296" y="-15" type="line"/>
			<point x="379" y="-15" type="line"/>
			<point x="379" y="163" type="line"/>
			<point x="484" y="163" type="line"/>
			<point x="484" y="226" type="line"/>
			<point x="379" y="226" type="line"/>
			<point x="379" y="656" type="line"/>
			<point x="321" y="656" type="line"/>
			<point x="24" y="216" type="line"/>
			<point x="24" y="163" type="line"/>
			<point x="296" y="163" type="line"/>
		</contour>
		<contour>
			<point x="83" y="226" type="line"/>
			<point x="296" y="549" type="line"/>
			<point x="296" y="226" type="line"/>
		</contour>
	</outline>
</glyph>
<glyph name="seven" format="1" >
	<unicode hex="000037"/>
	<advance width="500"/>
	<outline>
		<contour>
			<point x="143" y="0" type="line"/>
			<point x="226" y="0" type="line"/>
			<point x="464" y="596" type="line"/>
			<point x="464" y="647" type="line"/>
			<point x="51" y="647" type="line"/>
			<point x="51" y="565" type="line"/>
			<point x="397" y="565" type="line"/>
			<point x="133" y="10" type="line"/>
		</contour>
	</outline>
</glyph>
<glyph name="nine" format="1" >
	<unicode hex="000039"/>
	<advance width="500"/>
	<outline>
		<contour>
			<point x="118" y="461" type="curve"/>
			<point x="118" y="562" />
			<point x="173" y="615" />
			<point x="238" y="615" type="curve"/>
			<point x="311" y="615" />
			<point x="360" y="544" />
			<point x="360" y="382" type="curve"/>
			<point x="360" y="373" />
			<point x="360" y="365" />
			<point x="359" y="356" type="curve"/>
			<point x="328" y="329" />
			<point x="294" y="316" />
			<point x="250" y="316" type="curve"/>
			<point x="176" y="316" />
			<point x="118" y="359" />
		</contour>
		<contour>
			<point x="86" y="-15" type="line"/>
			<point x="346" y="45" />
			<point x="450" y="208" />
			<point x="450" y="399" type="curve"/>
			<point x="450" y="558" />
			<point x="373" y="660" />
			<point x="242" y="660" type="curve"/>
			<point x="116" y="660" />
			<point x="29" y="576" />
			<point x="29" y="452" type="curve"/>
			<point x="29" y="330" />
			<point x="116" y="256" />
			<point x="223" y="256" type="curve"/>
			<point x="275" y="256" />
			<point x="320" y="272" />
			<point x="355" y="305" type="curve"/>
			<point x="336" y="168" />
			<point x="257" y="83" />
			<point x="76" y="23" type="curve"/>
		</contour>
	</outline>
</glyph>
<glyph name="colon" format="1" >
	<unicode hex="00003A"/>
	<advance width="300"/>
	<outline>
		<contour>
			<point x="150" y="-13" type="curve"/>
			<point x="190" y="-13" />
			<point x="221" y="19" />
			<point x="221" y="58" type="curve"/>
			<point x="221" y="98" />
			<point x="190" y="130" />
			<point x="150" y="130" type="curve"/>
			<point x="110" y="130" />
			<point x="79" y="98" />
			<point x="79" y="58" type="curve"/>
			<point x="79" y="19" />
			<point x="110" y="-13" />
		</contour>
		<contour>
			<point x="150" y="322" type="curve"/>
			<point x="190" y="322" />
			<point x="221" y="354" />
			<point x="221" y="393" type="curve"/>
			<point x="221" y="433" />
			<point x="190" y="465" />
			<point x="150" y="465" type="curve"/>
			<point x="110" y="465" />
			<point x="79" y="433" />
			<point x="79" y="393" type="curve"/>
			<point x="79" y="354" />
			<point x="110" y="322" />
		</contour>
	</outline>
</glyph>
<glyph name="semicolon" format="1" >
	<unicode hex="00003B"/>
	<advance width="300"/>
	<outline>
		<contour>
			<point x="60" y="-177" type="line"/>
			<point x="145" y="-146" />
			<point x="217" y="-72" />
			<point x="217" y="28" type="curve"/>
			<point x="217" y="51" />
			<point x="216" y="75" />
			<point x="209" y="97" type="curve"/>
			<point x="189" y="118" />
			<point x="169" y="125" />
			<point x="148" y="125" type="curve"/>
			<point x="103" y="125" />
			<point x="81" y="95" />
			<point x="81" y="58" type="curve"/>
			<point x="81" y="32" />
			<point x="94" y="14" />
			<point x="125" y="-5" type="curve"/>
			<point x="159" y="-25" type="line"/>
			<point x="142" y="-79" />
			<point x="109" y="-110" />
			<point x="45" y="-140" type="curve"/>
		</contour>
		<contour>
			<point x="150" y="322" type="curve"/>
			<point x="190" y="322" />
			<point x="221" y="354" />
			<point x="221" y="393" type="curve"/>
			<point x="221" y="433" />
			<point x="190" y="465" />
			<point x="150" y="465" type="curve"/>
			<point x="110" y="465" />
			<point x="79" y="433" />
			<point x="79" y="393" type="curve"/>
			<point x="79" y="354" />
			<point x="110" y="322" />
		</contour>
	</outline>
</glyph>
<glyph name="less" format="1" >
	<unicode hex="00003C"/>
	<advance width="530"/>
	<outline>
		<contour>
			<point x="57" y="306" type="line"/>
			<point x="444" y="81" type="line"/>
			<point x="474" y="135" type="line"/>
			<point x="127" y="330" type="line"/>
			<point x="474" y="524" type="line"/>
			<point x="444" y="578" type="line"/>
			<point x="57" y="353" type="line"/>
		</contour>
	</outline>
</glyph>
<glyph name="equal" format="1" >
	<unicode hex="00003D"/>
	<advance width="530"/>
	<outline>
		<contour>
			<point x="502" y="201" type="line"/>
			<point x="502" y="258" type="line"/>
			<point x="29" y="258" type="line"/>
			<point x="29" y="201" type="line"/>
		</contour>
		<contour>
			<point x="502" y="401" type="line"/>
			<point x="502" y="458" type="line"/>
			<point x="29" y="458" type="line"/>
			<point x="29" y="401" type="line"/>
		</contour>
	</outline>
</glyph>
<glyph name="B" format="1" >
	<unicode hex="000042"/>
	<advance width="629"/>
	<outline>
		<contour>
			<point x="288" y="323" type="line"/>
			<point x="426" y="323" />
			<point x="486" y="276" />
			<point x="486" y="183" type="curve"/>
			<point x="486" y="95" />
			<point x="424" y="47" />
			<point x="296" y="47" type="curve"/>
			<point x="235" y="47" type="line"/>
			<point x="233" y="132" />
			<point x="233" y="218" />
			<point x="233" y="323" type="curve"/>
		</contour>
		<contour>
			<point x="304" y="624" type="line"/>
			<point x="406" y="624" />
			<point x="458" y="591" />
			<point x="458" y="500" type="curve"/>
			<point x="458" y="409" />
			<point x="406" y="369" />
			<point x="285" y="369" type="curve"/>
			<point x="233" y="369" type="line"/>
			<point x="233" y="448" />
			<point x="233" y="537" />
			<point x="235" y="624" type="curve"/>
		</contour>
		<contour>
			<point x="44" y="629" type="line"/>
			<point x="136" y="618" type="line"/>
			<point x="138" y="532" />
			<point x="138" y="445" />
			<point x="138" y="359" type="curve"/>
			<point x="138" y="310" type="line"/>
			<point x="138" y="223" />
			<point x="138" y="136" />
			<point x="136" y="52" type="curve"/>
			<point x="44" y="41" type="line"/>
			<point x="44" y="0" type="line"/>
			<point x="319" y="0" type="line"/>
			<point x="511" y="0" />
			<point x="586" y="92" />
			<point x="586" y="183" type="curve"/>
			<point x="586" y="264" />
			<point x="530" y="329" />
			<point x="397" y="348" type="curve"/>
			<point x="508" y="371" />
			<point x="552" y="436" />
			<point x="552" y="507" type="curve"/>
			<point x="552" y="602" />
			<point x="473" y="670" />
			<point x="334" y="670" type="curve"/>
			<point x="44" y="670" type="line"/>
		</contour>
	</outline>
</glyph>
<glyph name="D" format="1" >
	<unicode hex="000044"/>
	<advance width="710"/>
	<outline>
		<contour>
			<point x="233" y="322" type="curve"/>
			<point x="233" y="359" type="line"/>
			<point x="233" y="448" />
			<point x="233" y="537" />
			<point x="235" y="624" type="curve"/>
			<point x="323" y="624" type="line"/>
			<point x="468" y="624" />
			<point x="554" y="522" />
			<point x="554" y="334" type="curve"/>
			<point x="554" y="152" />
			<point x="468" y="47" />
			<point x="314" y="47" type="curve"/>
			<point x="235" y="47" type="line"/>
			<point x="233" y="135" />
			<point x="233" y="224" />
		</contour>
		<contour>
			<point x="44" y="629" type="line"/>
			<point x="136" y="618" type="line"/>
			<point x="138" y="532" />
			<point x="138" y="445" />
			<point x="138" y="359" type="curve"/>
			<point x="138" y="322" type="line"/>
			<point x="138" y="225" />
			<point x="138" y="137" />
			<point x="136" y="52" type="curve"/>
			<point x="44" y="41" type="line"/>
			<point x="44" y="0" type="line"/>
			<point x="320" y="0" type="line"/>
			<point x="515" y="0" />
			<point x="663" y="118" />
			<point x="663" y="334" type="curve"/>
			<point x="663" y="551" />
			<point x="531" y="670" />
			<point x="339" y="670" type="curve"/>
			<point x="44" y="670" type="line"/>
		</contour>
	</outline>
</glyph>
<glyph name="F" format="1" >
	<unicode hex="000046"/>
	<advance width="579"/>
	<outline>
		<contour>
			<point x="44" y="629" type="line"/>
			<point x="136" y="618" type="line"/>
			<point x="138" y="532" />
			<point x="138" y="445" />
			<point x="138" y="359" type="curve"/>
			<point x="138" y="310" type="line"/>
			<point x="138" y="223" />
			<point x="138" y="136" />
			<point x="136" y="52" type="curve"/>
			<point x="44" y="41" type="line"/>
			<point x="44" y="0" type="line"/>
			<point x="328" y="0" type="line"/>
			<point x="328" y="41" type="line"/>
			<point x="235" y="52" type="line"/>
			<point x="233" y="134" />
			<point x="233" y="219" />
			<point x="233" y="318" type="curve"/>
			<point x="388" y="318" type="line"/>
			<point x="402" y="214" type="line"/>
			<point x="448" y="214" type="line"/>
			<point x="448" y="460" type="line"/>
			<point x="402" y="460" type="line"/>
			<point x="388" y="365" type="line"/>
			<point x="233" y="365" type="line"/>
			<point x="233" y="447" />
			<point x="233" y="535" />
			<point x="235" y="620" type="curve"/>
			<point x="470" y="620" type="line"/>
			<point x="492" y="493" type="line"/>
			<point x="549" y="493" type="line"/>
			<point x="542" y="670" type="line"/>
			<point x="44" y="670" type="line"/>
		</contour>
	</outline>
</glyph>
<glyph name="H" format="1" >
	<unicode hex="000048"/>
	<advance width="788"/>
	<outline>
		<contour>
			<point x="462" y="629" type="line"/>
			<point x="554" y="618" type="line"/>
			<point x="556" y="537" />
			<point x="556" y="454" />
			<point x="556" y="366" type="curve"/>
			<point x="233" y="366" type="line"/>
			<point x="233" y="446" />
			<point x="233" y="534" />
			<point x="235" y="619" type="curve"/>
			<point x="326" y="629" type="line"/>
			<point x="326" y="670" type="line"/>
			<point x="44" y="670" type="line"/>
			<point x="44" y="629" type="line"/>
			<point x="136" y="618" type="line"/>
			<point x="138" y="532" />
			<point x="138" y="445" />
			<point x="138" y="359" type="curve"/>
			<point x="138" y="310" type="line"/>
			<point x="138" y="223" />
			<point x="138" y="136" />
			<point x="136" y="52" type="curve"/>
			<point x="44" y="41" type="line"/>
			<point x="44" y="0" type="line"/>
			<point x="326" y="0" type="line"/>
			<point x="326" y="41" type="line"/>
			<point x="235" y="51" type="line"/>
			<point x="233" y="133" />
			<point x="233" y="217" />
			<point x="233" y="319" type="curve"/>
			<point x="556" y="319" type="line"/>
			<point x="556" y="226" />
			<point x="556" y="137" />
			<point x="554" y="52" type="curve"/>
			<point x="462" y="41" type="line"/>
			<point x="462" y="0" type="line"/>
			<point x="744" y="0" type="line"/>
			<point x="744" y="41" type="line"/>
			<point x="652" y="52" type="line"/>
			<point x="650" y="138" />
			<point x="650" y="224" />
			<point x="650" y="310" type="curve"/>
			<point x="650" y="359" type="line"/>
			<point x="650" y="446" />
			<point x="650" y="533" />
			<point x="652" y="618" type="curve"/>
			<point x="744" y="629" type="line"/>
			<point x="744" y="670" type="line"/>
			<point x="462" y="670" type="line"/>
		</contour>
	</outline>
</glyph>
<glyph name="J" format="1" >
	<unicode hex="00004A"/>
	<advance width="374"/>
	<outline>
		<contour>
			<point x="47" y="629" type="line"/>
			<point x="153" y="618" type="line"/>
			<point x="157" y="178" />
			<point x="157" y="205" />
			<point x="157" y="122" type="curve"/>
			<point x="157" y="10" />
			<point x="152" y="-40" />
			<point x="135" y="-77" type="curve"/>
			<point x="118" y="-64" type="line"/>
			<point x="90" y="-43" />
			<point x="69" y="-35" />
			<point x="43" y="-35" type="curve"/>
			<point x="12" y="-35" />
			<point x="-11" y="-47" />
			<point x="-17" y="-84" type="curve"/>
			<point x="-8" y="-122" />
			<point x="31" y="-133" />
			<point x="70" y="-133" type="curve"/>
			<point x="116" y="-133" />
			<point x="155" y="-117" />
			<point x="189" y="-75" type="curve"/>
			<point x="237" y="-17" />
			<point x="246" y="41" />
			<point x="246" y="215" type="curve"/>
			<point x="246" y="360" type="line"/>
			<point x="246" y="447" />
			<point x="246" y="534" />
			<point x="248" y="618" type="curve"/>
			<point x="340" y="629" type="line"/>
			<point x="340" y="670" type="line"/>
			<point x="47" y="670" type="line"/>
		</contour>
	</outline>
</glyph>
<glyph name="K" format="1" >
	<unicode hex="00004B"/>
	<advance width="667"/>
	<outline>
		<contour>
			<point x="44" y="629" type="line"/>
			<point x="136" y="618" type="line"/>
			<point x="138" y="532" />
			<point x="138" y="445" />
			<point x="138" y="359" type="curve"/>
			<point x="138" y="310" type="line"/>
			<point x="138" y="223" />
			<point x="138" y="136" />
			<point x="136" y="52" type="curve"/>
			<point x="44" y="41" type="line"/>
			<point x="44" y="0" type="line"/>
			<point x="326" y="0" type="line"/>
			<point x="326" y="41" type="line"/>
			<point x="231" y="52" type="line"/>
			<point x="229" y="114" />
			<point x="229" y="175" />
			<point x="229" y="229" type="curve"/>
			<point x="328" y="348" type="line"/>
			<point x="487" y="51" type="line"/>
			<point x="405" y="41" type="line"/>
			<point x="405" y="0" type="line"/>
			<point x="662" y="0" type="line"/>
			<point x="662" y="41" type="line"/>
			<point x="585" y="51" type="line"/>
			<point x="383" y="415" type="line"/>
			<point x="550" y="616" type="line"/>
			<point x="647" y="629" type="line"/>
			<point x="647" y="670" type="line"/>
			<point x="417" y="670" type="line"/>
			<point x="417" y="629" type="line"/>
			<point x="489" y="615" type="line"/>
			<point x="229" y="296" type="line"/>
			<point x="229" y="359" type="line"/>
			<point x="229" y="446" />
			<point x="229" y="533" />
			<point x="231" y="618" type="curve"/>
			<point x="326" y="629" type="line"/>
			<point x="326" y="670" type="line"/>
			<point x="44" y="670" type="line"/>
		</contour>
	</outline>
</glyph>
<glyph name="N" format="1" >
	<unicode hex="00004E"/>
	<advance width="735"/>
	<outline>
		<contour>
			<point x="454" y="629" type="line"/>
			<point x="559" y="616" type="line"/>
			<point x="559" y="172" type="line"/>
			<point x="209" y="670" type="line"/>
			<point x="44" y="670" type="line"/>
			<point x="44" y="629" type="line"/>
			<point x="124" y="622" type="line"/>
			<point x="124" y="53" type="line"/>
			<point x="39" y="41" type="line"/>
			<point x="39" y="0" type="line"/>
			<point x="281" y="0" type="line"/>
			<point x="281" y="41" type="line"/>
			<point x="175" y="55" type="line"/>
			<point x="175" y="558" type="line"/>
			<point x="575" y="-7" type="line"/>
			<point x="610" y="-7" type="line"/>
			<point x="610" y="616" type="line"/>
			<point x="695" y="629" type="line"/>
			<point x="695" y="670" type="line"/>
			<point x="454" y="670" type="line"/>
		</contour>
	</outline>
</glyph>
<glyph name="T" format="1" >
	<unicode hex="000054"/>
	<advance width="604"/>
	<outline>
		<contour>
			<point x="20" y="492" type="line"/>
			<point x="78" y="492" type="line"/>
			<point x="100" y="620" type="line"/>
			<point x="253" y="620" type="line"/>
			<point x="255" y="533" />
			<point x="255" y="445" />
			<point x="255" y="359" type="curve"/>
			<point x="255" y="310" type="line"/>
			<point x="255" y="223" />
			<point x="255" y="137" />
			<point x="253" y="52" type="curve"/>
			<point x="151" y="41" type="line"/>
			<point x="151" y="0" type="line"/>
			<point x="453" y="0" type="line"/>
			<point x="453" y="41" type="line"/>
			<point x="351" y="52" type="line"/>
			<point x="349" y="138" />
			<point x="349" y="224" />
			<point x="349" y="310" type="curve"/>
			<point x="349" y="359" type="line"/>
			<point x="349" y="447" />
			<point x="349" y="535" />
			<point x="351" y="620" type="curve"/>
			<point x="504" y="620" type="line"/>
			<point x="526" y="492" type="line"/>
			<point x="584" y="492" type="line"/>
			<point x="576" y="670" type="line"/>
			<point x="28" y="670" type="line"/>
		</contour>
	</outline>
</glyph>
<glyph name="V" format="1" >
	<unicode hex="000056"/>
	<advance width="674"/>
	<outline>
		<contour>
			<point x="15" y="629" type="line"/>
			<point x="90" y="620" type="line"/>
			<point x="323" y="-7" type="line"/>
			<point x="367" y="-7" type="line"/>
			<point x="578" y="617" type="line"/>
			<point x="665" y="629" type="line"/>
			<point x="665" y="670" type="line"/>
			<point x="434" y="670" type="line"/>
			<point x="434" y="625" type="line"/>
			<point x="522" y="615" type="line"/>
			<point x="360" y="136" type="line"/>
			<point x="192" y="616" type="line"/>
			<point x="288" y="625" type="line"/>
			<point x="288" y="670" type="line"/>
			<point x="15" y="670" type="line"/>
		</contour>
	</outline>
</glyph>
<glyph name="W" format="1" >
	<unicode hex="000057"/>
	<advance width="962"/>
	<outline>
		<contour>
			<point x="726" y="629" type="line"/>
			<point x="817" y="616" type="line"/>
			<point x="690" y="153" type="line"/>
			<point x="541" y="617" type="line"/>
			<point x="642" y="629" type="line"/>
			<point x="642" y="670" type="line"/>
			<point x="370" y="670" type="line"/>
			<point x="370" y="629" type="line"/>
			<point x="470" y="617" type="line"/>
			<point x="318" y="159" type="line"/>
			<point x="195" y="618" type="line"/>
			<point x="287" y="629" type="line"/>
			<point x="287" y="670" type="line"/>
			<point x="15" y="670" type="line"/>
			<point x="15" y="629" type="line"/>
			<point x="98" y="619" type="line"/>
			<point x="278" y="-7" type="line"/>
			<point x="321" y="-7" type="line"/>
			<point x="484" y="513" type="line"/>
			<point x="657" y="-7" type="line"/>
			<point x="700" y="-7" type="line"/>
			<point x="869" y="617" type="line"/>
			<point x="953" y="629" type="line"/>
			<point x="953" y="670" type="line"/>
			<point x="726" y="670" type="line"/>
		</contour>
	</outline>
</glyph>
<glyph name="X" format="1" >
	<unicode hex="000058"/>
	<advance width="648"/>
	<outline>
		<contour>
			<point x="19" y="629" type="line"/>
			<point x="107" y="619" type="line"/>
			<point x="284" y="325" type="line"/>
			<point x="105" y="53" type="line"/>
			<point x="10" y="41" type="line"/>
			<point x="10" y="0" type="line"/>
			<point x="239" y="0" type="line"/>
			<point x="239" y="41" type="line"/>
			<point x="161" y="52" type="line"/>
			<point x="308" y="284" type="line"/>
			<point x="448" y="52" type="line"/>
			<point x="356" y="41" type="line"/>
			<point x="356" y="0" type="line"/>
			<point x="639" y="0" type="line"/>
			<point x="639" y="41" type="line"/>
			<point x="553" y="51" type="line"/>
			<point x="365" y="364" type="line"/>
			<point x="529" y="618" type="line"/>
			<point x="617" y="629" type="line"/>
			<point x="617" y="670" type="line"/>
			<point x="388" y="670" type="line"/>
			<point x="388" y="629" type="line"/>
			<point x="473" y="617" type="line"/>
			<point x="341" y="404" type="line"/>
			<point x="212" y="619" type="line"/>
			<point x="300" y="629" type="line"/>
			<point x="300" y="670" type="line"/>
			<point x="19" y="670" type="line"/>
		</contour>
	</outline>
</glyph>
<glyph name="Y" format="1" >
	<unicode hex="000059"/>
	<advance width="633"/>
	<outline>
		<contour>
			<point x="25" y="629" type="line"/>
			<point x="93" y="621" type="line"/>
			<point x="271" y="259" type="line"/>
			<point x="271" y="182" />
			<point x="271" y="114" />
			<point x="269" y="52" type="curve"/>
			<point x="167" y="41" type="line"/>
			<point x="167" y="0" type="line"/>
			<point x="469" y="0" type="line"/>
			<point x="469" y="41" type="line"/>
			<point x="367" y="52" type="line"/>
			<point x="365" y="116" />
			<point x="365" y="185" />
			<point x="365" y="263" type="curve"/>
			<point x="535" y="616" type="line"/>
			<point x="623" y="629" type="line"/>
			<point x="623" y="670" type="line"/>
			<point x="394" y="670" type="line"/>
			<point x="394" y="629" type="line"/>
			<point x="484" y="617" type="line"/>
			<point x="341" y="314" type="line"/>
			<point x="202" y="618" type="line"/>
			<point x="297" y="629" type="line"/>
			<point x="297" y="670" type="line"/>
			<point x="25" y="670" type="line"/>
		</contour>
	</outline>
</glyph>
<glyph name="Z" format="1" >
	<unicode hex="00005A"/>
	<advance width="551"/>
	<outline>
		<contour>
			<point x="20" y="0" type="line"/>
			<point x="523" y="0" type="line"/>
			<point x="531" y="178" type="line"/>
			<point x="470" y="178" type="line"/>
			<point x="443" y="50" type="line"/>
			<point x="132" y="50" type="line"/>
			<point x="509" y="635" type="line"/>
			<point x="509" y="670" type="line"/>
			<point x="38" y="670" type="line"/>
			<point x="30" y="492" type="line"/>
			<point x="91" y="492" type="line"/>
			<point x="118" y="620" type="line"/>
			<point x="398" y="620" type="line"/>
			<point x="20" y="36" type="line"/>
		</contour>
	</outline>
</glyph>
<glyph name="bracketright" format="1" >
	<unicode hex="00005D"/>
	<advance width="320"/>
	<outline>
		<contour>
			<point x="220" y="715" type="curve"/>
			<point x="29" y="715" type="line"/>
			<point x="29" y="674" type="line"/>
			<point x="142" y="661" type="line"/>
			<point x="144" y="574" />
			<point x="144" y="485" />
			<point x="144" y="398" type="curve"/>
			<point x="144" y="158" type="line"/>
			<point x="144" y="70" />
			<point x="144" y="-19" />
			<point x="142" y="-105" type="curve"/>
			<point x="29" y="-118" type="line"/>
			<point x="29" y="-159" type="line"/>
			<point x="220" y="-159" type="line"/>
			<point x="217" y="-54" />
			<point x="217" y="53" />
			<point x="217" y="158" type="curve"/>
			<point x="217" y="398" type="line"/>
			<point x="217" y="505" />
			<point x="217" y="612" />
		</contour>
	</outline>
</glyph>
<glyph name="underscore" format="1" >
	<unicode hex="00005F"/>
	<advance width="512"/>
	<outline>
		<contour>
			<point x="40" y="-69" type="line"/>
			<point x="472" y="-69" type="line"/>
			<point x="472" y="-4" type="line"/>
			<point x="40" y="-4" type="line"/>
		</contour>
	</outline>
</glyph>
<glyph name="grave" format="1" >
	<unicode hex="000060"/>
	<advance width="400"/>
	<outline>
		<contour>
			<point x="256" y="576" type="line"/>
			<point x="227" y="623" />
			<point x="199" y="669" />
			<point x="167" y="717" type="curve"/>
			<point x="148" y="748" />
			<point x="131" y="758" />
			<point x="113" y="758" type="curve"/>
			<point x="93" y="758" />
			<point x="75" y="746" />
			<point x="75" y="720" type="curve"/>
			<point x="75" y="706" />
			<point x="81" y="691" />
			<point x="109" y="665" type="curve"/>
			<point x="150" y="628" />
			<point x="189" y="593" />
			<point x="230" y="557" type="curve"/>
		</contour>
	</outline>
</glyph>
<glyph name="d" format="1" >
	<unicode hex="000064"/>
	<advance width="567"/>
	<outline>
		<contour>
			<point x="135" y="235" type="curve"/>
			<point x="135" y="371" />
			<point x="199" y="431" />
			<point x="273" y="431" type="curve"/>
			<point x="306" y="431" />
			<point x="340" y="419" />
			<point x="386" y="379" type="curve"/>
			<point x="386" y="102" type="line"/>
			<point x="349" y="60" />
			<point x="318" y="44" />
			<point x="274" y="44" type="curve"/>
			<point x="194" y="44" />
			<point x="135" y="104" />
		</contour>
		<contour>
			<point x="396" y="-10" type="line"/>
			<point x="551" y="0" type="line"/>
			<point x="551" y="36" type="line"/>
			<point x="470" y="48" type="line"/>
			<point x="470" y="589" type="line"/>
			<point x="474" y="732" type="line"/>
			<point x="460" y="740" type="line"/>
			<point x="304" y="695" type="line"/>
			<point x="304" y="659" type="line"/>
			<point x="389" y="649" type="line"/>
			<point x="389" y="423" type="line"/>
			<point x="347" y="472" />
			<point x="305" y="488" />
			<point x="258" y="488" type="curve"/>
			<point x="136" y="488" />
			<point x="45" y="386" />
			<point x="45" y="233" type="curve"/>
			<point x="45" y="87" />
			<point x="127" y="-13" />
			<point x="249" y="-13" type="curve"/>
			<point x="311" y="-13" />
			<point x="354" y="13" />
			<point x="389" y="59" type="curve"/>
		</contour>
	</outline>
</glyph>
<glyph name="f" format="1" >
	<unicode hex="000066"/>
	<advance width="354"/>
	<outline>
		<contour>
			<point x="36" y="0" type="line"/>
			<point x="294" y="0" type="line"/>
			<point x="294" y="36" type="line"/>
			<point x="204" y="51" type="line"/>
			<point x="203" y="104" />
			<point x="202" y="157" />
			<point x="202" y="210" type="curve"/>
			<point x="202" y="422" type="line"/>
			<point x="338" y="422" type="line"/>
			<point x="338" y="475" type="line"/>
			<point x="200" y="475" type="line"/>
			<point x="197" y="580" />
			<point x="211" y="631" />
			<point x="236" y="669" type="curve"/>
			<point x="246" y="684" />
			<point x="255" y="695" />
			<point x="266" y="702" type="curve"/>
			<point x="293" y="681" type="line"/>
			<point x="318" y="661" />
			<point x="340" y="650" />
			<point x="365" y="650" type="curve"/>
			<point x="402" y="650" />
			<point x="424" y="670" />
			<point x="426" y="696" type="curve"/>
			<point x="416" y="735" />
			<point x="377" y="750" />
			<point x="330" y="750" type="curve"/>
			<point x="284" y="750" />
			<point x="240" y="738" />
			<point x="200" y="699" type="curve"/>
			<point x="143" y="645" />
			<point x="128" y="583" />
			<point x="119" y="477" type="curve"/>
			<point x="34" y="466" type="line"/>
			<point x="34" y="422" type="line"/>
			<point x="117" y="422" type="line"/>
			<point x="117" y="210" type="line"/>
			<point x="117" y="157" />
			<point x="116" y="103" />
			<point x="115" y="50" type="curve"/>
			<point x="36" y="36" type="line"/>
		</contour>
	</outline>
</glyph>
<glyph name="g" format="1" >
	<unicode hex="000067"/>
	<advance width="518"/>
	<outline>
		<contour>
			<point x="118" y="-102" type="curve"/>
			<point x="118" y="-69" />
			<point x="130" y="-43" />
			<point x="158" y="-12" type="curve"/>
			<point x="171" y="-13" />
			<point x="185" y="-14" />
			<point x="198" y="-14" type="curve"/>
			<point x="315" y="-14" type="line"/>
			<point x="387" y="-14" />
			<point x="415" y="-47" />
			<point x="415" y="-92" type="curve"/>
			<point x="415" y="-148" />
			<point x="357" y="-193" />
			<point x="247" y="-193" type="curve"/>
			<point x="168" y="-193" />
			<point x="118" y="-167" />
		</contour>
		<contour>
			<point x="239" y="160" type="curve"/>
			<point x="343" y="160" />
			<point x="420" y="219" />
			<point x="420" y="324" type="curve"/>
			<point x="420" y="360" />
			<point x="411" y="391" />
			<point x="396" y="415" type="curve"/>
			<point x="495" y="415" type="line"/>
			<point x="495" y="478" type="line"/>
			<point x="480" y="488" type="line"/>
			<point x="367" y="448" type="line"/>
			<point x="335" y="474" />
			<point x="291" y="488" />
			<point x="240" y="488" type="curve"/>
			<point x="136" y="488" />
			<point x="59" y="429" />
			<point x="59" y="324" type="curve"/>
			<point x="59" y="256" />
			<point x="88" y="209" />
			<point x="136" y="183" type="curve"/>
			<point x="86" y="137" />
			<point x="68" y="104" />
			<point x="68" y="73" type="curve"/>
			<point x="68" y="33" />
			<point x="91" y="8" />
			<point x="135" y="-5" type="curve"/>
			<point x="61" y="-40" />
			<point x="36" y="-75" />
			<point x="36" y="-118" type="curve"/>
			<point x="36" y="-189" />
			<point x="95" y="-240" />
			<point x="232" y="-240" type="curve"/>
			<point x="403" y="-240" />
			<point x="490" y="-153" />
			<point x="490" y="-66" type="curve"/>
			<point x="490" y="14" />
			<point x="439" y="61" />
			<point x="329" y="61" type="curve"/>
			<point x="210" y="61" type="line"/>
			<point x="162" y="61" />
			<point x="140" y="78" />
			<point x="140" y="115" type="curve"/>
			<point x="140" y="132" />
			<point x="148" y="149" />
			<point x="165" y="171" type="curve"/>
			<point x="187" y="164" />
			<point x="212" y="160" />
		</contour>
		<contour>
			<point x="237" y="200" type="curve"/>
			<point x="175" y="200" />
			<point x="140" y="250" />
			<point x="140" y="323" type="curve"/>
			<point x="140" y="396" />
			<point x="178" y="447" />
			<point x="241" y="447" type="curve"/>
			<point x="303" y="447" />
			<point x="339" y="398" />
			<point x="339" y="327" type="curve"/>
			<point x="339" y="253" />
			<point x="301" y="200" />
		</contour>
	</outline>
</glyph>
<glyph name="h" format="1" >
	<unicode hex="000068"/>
	<advance width="601"/>
	<outline>
		<contour>
			<point x="30" y="0" type="line"/>
			<point x="262" y="0" type="line"/>
			<point x="262" y="36" type="line"/>
			<point x="193" y="50" type="line"/>
			<point x="192" y="100" />
			<point x="191" y="166" />
			<point x="191" y="210" type="curve"/>
			<point x="191" y="351" type="line"/>
			<point x="242" y="397" />
			<point x="283" y="416" />
			<point x="332" y="416" type="curve"/>
			<point x="391" y="416" />
			<point x="414" y="387" />
			<point x="414" y="295" type="curve"/>
			<point x="414" y="210" type="line"/>
			<point x="414" y="164" />
			<point x="413" y="99" />
			<point x="412" y="49" type="curve"/>
			<point x="339" y="36" type="line"/>
			<point x="339" y="0" type="line"/>
			<point x="571" y="0" type="line"/>
			<point x="571" y="36" type="line"/>
			<point x="501" y="50" type="line"/>
			<point x="500" y="100" />
			<point x="499" y="164" />
			<point x="499" y="210" type="curve"/>
			<point x="499" y="303" type="line"/>
			<point x="499" y="434" />
			<point x="457" y="488" />
			<point x="371" y="488" type="curve"/>
			<point x="307" y="488" />
			<point x="237" y="450" />
			<point x="188" y="396" type="curve"/>
			<point x="188" y="589" type="line"/>
			<point x="192" y="732" type="line"/>
			<point x="178" y="740" type="line"/>
			<point x="25" y="695" type="line"/>
			<point x="25" y="659" type="line"/>
			<point x="107" y="649" type="line"/>
			<point x="107" y="210" type="line"/>
			<point x="107" y="166" />
			<point x="106" y="100" />
			<point x="105" y="50" type="curve"/>
			<point x="30" y="36" type="line"/>
		</contour>
	</outline>
</glyph>
<glyph name="i" format="1" >
	<unicode hex="000069"/>
	<advance width="298"/>
	<outline>
		<contour>
			<point x="35" y="0" type="line"/>
			<point x="267" y="0" type="line"/>
			<point x="267" y="36" type="line"/>
			<point x="198" y="50" type="line"/>
			<point x="197" y="100" />
			<point x="196" y="166" />
			<point x="196" y="210" type="curve"/>
			<point x="196" y="342" type="line"/>
			<point x="199" y="478" type="line"/>
			<point x="184" y="488" type="line"/>
			<point x="29" y="427" type="line"/>
			<point x="29" y="392" type="line"/>
			<point x="108" y="383" type="line"/>
			<point x="110" y="343" />
			<point x="111" y="312" />
			<point x="111" y="257" type="curve"/>
			<point x="111" y="210" type="line"/>
			<point x="111" y="165" />
			<point x="110" y="100" />
			<point x="109" y="50" type="curve"/>
			<point x="35" y="36" type="line"/>
		</contour>
		<contour>
			<point x="148" y="589" type="curve"/>
			<point x="185" y="589" />
			<point x="215" y="615" />
			<point x="215" y="653" type="curve"/>
			<point x="215" y="690" />
			<point x="185" y="717" />
			<point x="148" y="717" type="curve"/>
			<point x="110" y="717" />
			<point x="81" y="690" />
			<point x="81" y="653" type="curve"/>
			<point x="81" y="615" />
			<point x="110" y="589" />
		</contour>
	</outline>
</glyph>
<glyph name="j" format="1" >
	<unicode hex="00006A"/>
	<advance width="277"/>
	<outline>
		<contour>
			<point x="6" y="-250" type="curve"/>
			<point x="65" y="-250" />
			<point x="95" y="-230" />
			<point x="130" y="-195" type="curve"/>
			<point x="184" y="-141" />
			<point x="192" y="-63" />
			<point x="192" y="100" type="curve"/>
			<point x="192" y="342" type="line"/>
			<point x="195" y="478" type="line"/>
			<point x="180" y="488" type="line"/>
			<point x="29" y="427" type="line"/>
			<point x="29" y="392" type="line"/>
			<point x="108" y="383" type="line"/>
			<point x="110" y="343" />
			<point x="111" y="312" />
			<point x="111" y="257" type="curve"/>
			<point x="111" y="102" type="line"/>
			<point x="111" y="-48" />
			<point x="106" y="-129" />
			<point x="90" y="-171" type="curve"/>
			<point x="85" y="-183" />
			<point x="80" y="-192" />
			<point x="74" y="-198" type="curve"/>
			<point x="51" y="-181" type="line"/>
			<point x="25" y="-161" />
			<point x="3" y="-151" />
			<point x="-24" y="-151" type="curve"/>
			<point x="-53" y="-151" />
			<point x="-74" y="-164" />
			<point x="-83" y="-192" type="curve"/>
			<point x="-82" y="-218" />
			<point x="-54" y="-250" />
		</contour>
		<contour>
			<point x="148" y="589" type="curve"/>
			<point x="186" y="589" />
			<point x="215" y="615" />
			<point x="215" y="653" type="curve"/>
			<point x="215" y="690" />
			<point x="186" y="717" />
			<point x="148" y="717" type="curve"/>
			<point x="110" y="717" />
			<point x="81" y="690" />
			<point x="81" y="653" type="curve"/>
			<point x="81" y="615" />
			<point x="110" y="589" />
		</contour>
	</outline>
</glyph>
<glyph name="braceleft" format="1" >
	<unicode hex="00007B"/>
	<advance width="344"/>
	<outline>
		<contour>
			<point x="40" y="258" type="line"/>
			<point x="124" y="247" />
			<point x="159" y="216" />
			<point x="159" y="166" type="curve"/>
			<point x="159" y="112" />
			<point x="117" y="45" />
			<point x="117" y="-38" type="curve"/>
			<point x="117" y="-117" />
			<point x="174" y="-159" />
			<point x="269" y="-159" type="curve"/>
			<point x="314" y="-159" type="line"/>
			<point x="314" y="-119" type="line"/>
			<point x="287" y="-116" type="line"/>
			<point x="218" y="-108" />
			<point x="190" y="-92" />
			<point x="190" y="-34" type="curve"/>
			<point x="190" y="42" />
			<point x="212" y="115" />
			<point x="212" y="155" type="curve"/>
			<point x="212" y="219" />
			<point x="184" y="264" />
			<point x="119" y="278" type="curve"/>
			<point x="184" y="292" />
			<point x="212" y="337" />
			<point x="212" y="401" type="curve"/>
			<point x="212" y="441" />
			<point x="190" y="514" />
			<point x="190" y="590" type="curve"/>
			<point x="190" y="648" />
			<point x="218" y="664" />
			<point x="287" y="672" type="curve"/>
			<point x="314" y="675" type="line"/>
			<point x="314" y="715" type="line"/>
			<point x="269" y="715" type="line"/>
			<point x="174" y="715" />
			<point x="117" y="673" />
			<point x="117" y="594" type="curve"/>
			<point x="117" y="511" />
			<point x="159" y="444" />
			<point x="159" y="390" type="curve"/>
			<point x="159" y="340" />
			<point x="124" y="309" />
			<point x="40" y="298" type="curve"/>
		</contour>
	</outline>
</glyph>
<glyph name="bracketleft.dnom" format="1" >
	<advance width="256"/>
	<outline>
		<contour>
			<point x="86" y="-99" type="line"/>
			<point x="216" y="-99" type="line"/>
			<point x="216" y="-66" type="line"/>
			<point x="145" y="-58" type="line"/>
			<point x="145" y="407" type="line"/>
			<point x="216" y="415" type="line"/>
			<point x="216" y="448" type="line"/>
			<point x="86" y="448" type="line"/>
		</contour>
	</outline>
</glyph>
<glyph name="bracketleft.numr" format="1" >
	<advance width="256"/>
	<outline>
		<contour>
			<point x="86" y="175" type="line"/>
			<point x="216" y="175" type="line"/>
			<point x="216" y="208" type="line"/>
			<point x="145" y="216" type="line"/>
			<point x="145" y="681" type="line"/>
			<point x="216" y="689" type="line"/>
			<point x="216" y="722" type="line"/>
			<point x="86" y="722" type="line"/>
		</contour>
	</outline>
</glyph>
<glyph name="bracketright.dnom" format="1" >
	<advance width="256"/>
	<outline>
		<contour>
			<point x="40" y="-99" type="line"/>
			<point x="169" y="-99" type="line"/>
			<point x="169" y="448" type="line"/>
			<point x="40" y="448" type="line"/>
			<point x="40" y="415" type="line"/>
			<point x="110" y="407" type="line"/>
			<point x="110" y="-58" type="line"/>
			<point x="40" y="-66" type="line"/>
		</contour>
	</outline>
</glyph>
<glyph name="bracketright.numr" format="1" >
	<advance width="256"/>
	<outline>
		<contour>
			<point x="40" y="175" type="line"/>
			<point x="169" y="175" type="line"/>
			<point x="169" y="722" type="line"/>
			<point x="40" y="722" type="line"/>
			<point x="40" y="689" type="line"/>
			<point x="110" y="681" type="line"/>
			<point x="110" y="216" type="line"/>
			<point x="40" y="208" type="line"/>
		</contour>
	</outline>
</glyph>
<glyph name="comma.dnom" format="1" >
	<advance width="220"/>
	<outline>
		<contour>
			<point x="52" y="-122" type="line"/>
			<point x="113" y="-100" />
			<point x="164" y="-48" />
			<point x="164" y="24" type="curve"/>
			<point x="164" y="40" />
			<point x="163" y="57" />
			<point x="158" y="73" type="curve"/>
			<point x="144" y="88" />
			<point x="130" y="93" />
			<point x="115" y="93" type="curve"/>
			<point x="83" y="93" />
			<point x="67" y="72" />
			<point x="67" y="45" type="curve"/>
			<point x="67" y="27" />
			<point x="76" y="14" />
			<point x="98" y="0" type="curve"/>
			<point x="122" y="-15" type="line"/>
			<point x="110" y="-53" />
			<point x="87" y="-75" />
			<point x="41" y="-96" type="curve"/>
		</contour>
	</outline>
</glyph>
<glyph name="comma.numr" format="1" >
	<advance width="220"/>
	<outline>
		<contour>
			<point x="52" y="152" type="line"/>
			<point x="113" y="174" />
			<point x="164" y="226" />
			<point x="164" y="298" type="curve"/>
			<point x="164" y="314" />
			<point x="163" y="331" />
			<point x="158" y="347" type="curve"/>
			<point x="144" y="362" />
			<point x="130" y="367" />
			<point x="115" y="367" type="curve"/>
			<point x="83" y="367" />
			<point x="67" y="346" />
			<point x="67" y="319" type="curve"/>
			<point x="67" y="301" />
			<point x="76" y="288" />
			<point x="98" y="274" type="curve"/>
			<point x="122" y="259" type="line"/>
			<point x="110" y="221" />
			<point x="87" y="199" />
			<point x="41" y="178" type="curve"/>
		</contour>
	</outline>
</glyph>
<glyph name="eight.numr" format="1" >
	<advance width="370"/>
	<outline>
		<contour>
			<point x="125" y="591" type="curve"/>
			<point x="125" y="628" />
			<point x="153" y="647" />
			<point x="187" y="647" type="curve"/>
			<point x="225" y="647" />
			<point x="245" y="624" />
			<point x="245" y="583" type="curve"/>
			<point x="245" y="555" />
			<point x="236" y="531" />
			<point x="206" y="506" type="curve"/>
			<point x="141" y="535" />
			<point x="125" y="564" />
		</contour>
		<contour>
			<point x="183" y="265" type="curve"/>
			<point x="265" y="265" />
			<point x="322" y="309" />
			<point x="322" y="379" type="curve"/>
			<point x="322" y="429" />
			<point x="292" y="463" />
			<point x="236" y="492" type="curve"/>
			<point x="288" y="523" />
			<point x="304" y="554" />
			<point x="304" y="585" type="curve"/>
			<point x="304" y="639" />
			<point x="258" y="680" />
			<point x="189" y="680" type="curve"/>
			<point x="121" y="680" />
			<point x="64" y="641" />
			<point x="64" y="572" type="curve"/>
			<point x="64" y="531" />
			<point x="85" y="493" />
			<point x="131" y="466" type="curve"/>
			<point x="78" y="442" />
			<point x="49" y="409" />
			<point x="49" y="363" type="curve"/>
			<point x="49" y="299" />
			<point x="105" y="265" />
		</contour>
		<contour>
			<point x="112" y="366" type="curve"/>
			<point x="112" y="398" />
			<point x="127" y="430" />
			<point x="160" y="452" type="curve"/>
			<point x="234" y="419" />
			<point x="256" y="397" />
			<point x="256" y="364" type="curve"/>
			<point x="256" y="329" />
			<point x="231" y="297" />
			<point x="185" y="297" type="curve"/>
			<point x="144" y="297" />
			<point x="112" y="323" />
		</contour>
	</outline>
</glyph>
<glyph name="f_f" format="1" >
	<advance width="658"/>
	<outline>
		<contour>
			<point x="36" y="0" type="line"/>
			<point x="293" y="0" type="line"/>
			<point x="293" y="36" type="line"/>
			<point x="204" y="51" type="line"/>
			<point x="203" y="104" />
			<point x="202" y="157" />
			<point x="202" y="210" type="curve"/>
			<point x="202" y="422" type="line"/>
			<point x="421" y="422" type="line"/>
			<point x="421" y="210" type="line"/>
			<point x="421" y="157" />
			<point x="420" y="103" />
			<point x="419" y="50" type="curve"/>
			<point x="340" y="36" type="line"/>
			<point x="340" y="0" type="line"/>
			<point x="598" y="0" type="line"/>
			<point x="598" y="36" type="line"/>
			<point x="508" y="51" type="line"/>
			<point x="507" y="104" />
			<point x="506" y="157" />
			<point x="506" y="210" type="curve"/>
			<point x="506" y="422" type="line"/>
			<point x="642" y="422" type="line"/>
			<point x="642" y="475" type="line"/>
			<point x="504" y="475" type="line"/>
			<point x="501" y="580" />
			<point x="515" y="631" />
			<point x="540" y="669" type="curve"/>
			<point x="550" y="684" />
			<point x="559" y="695" />
			<point x="570" y="702" type="curve"/>
			<point x="597" y="681" type="line"/>
			<point x="622" y="661" />
			<point x="644" y="650" />
			<point x="669" y="650" type="curve"/>
			<point x="706" y="650" />
			<point x="728" y="670" />
			<point x="730" y="696" type="curve"/>
			<point x="720" y="735" />
			<point x="681" y="750" />
			<point x="634" y="750" type="curve"/>
			<point x="588" y="750" />
			<point x="544" y="738" />
			<point x="504" y="699" type="curve"/>
			<point x="447" y="645" />
			<point x="432" y="583" />
			<point x="423" y="477" type="curve"/>
			<point x="406" y="475" type="line"/>
			<point x="200" y="475" type="line"/>
			<point x="197" y="587" />
			<point x="216" y="656" />
			<point x="251" y="691" type="curve"/>
			<point x="256" y="696" />
			<point x="261" y="700" />
			<point x="265" y="703" type="curve"/>
			<point x="293" y="682" type="line"/>
			<point x="317" y="662" />
			<point x="340" y="650" />
			<point x="365" y="650" type="curve"/>
			<point x="401" y="650" />
			<point x="424" y="671" />
			<point x="426" y="696" type="curve"/>
			<point x="415" y="735" />
			<point x="377" y="750" />
			<point x="329" y="750" type="curve"/>
			<point x="284" y="750" />
			<point x="236" y="736" />
			<point x="194" y="694" type="curve"/>
			<point x="144" y="644" />
			<point x="128" y="583" />
			<point x="119" y="477" type="curve"/>
			<point x="34" y="466" type="line"/>
			<point x="34" y="422" type="line"/>
			<point x="117" y="422" type="line"/>
			<point x="117" y="210" type="line"/>
			<point x="117" y="157" />
			<point x="116" y="103" />
			<point x="115" y="50" type="curve"/>
			<point x="36" y="36" type="line"/>
		</contour>
	</outline>
</glyph>
<glyph name="f_i" format="1" >
	<advance width="607"/>
	<outline>
		<contour>
			<point x="36" y="0" type="line"/>
			<point x="283" y="0" type="line"/>
			<point x="283" y="36" type="line"/>
			<point x="204" y="50" type="line"/>
			<point x="203" y="103" />
			<point x="202" y="157" />
			<point x="202" y="210" type="curve"/>
			<point x="202" y="422" type="line"/>
			<point x="417" y="422" type="line"/>
			<point x="419" y="371" />
			<point x="420" y="331" />
			<point x="420" y="261" type="curve"/>
			<point x="420" y="210" type="line"/>
			<point x="420" y="165" />
			<point x="419" y="100" />
			<point x="418" y="50" type="curve"/>
			<point x="344" y="36" type="line"/>
			<point x="344" y="0" type="line"/>
			<point x="576" y="0" type="line"/>
			<point x="576" y="36" type="line"/>
			<point x="507" y="50" type="line"/>
			<point x="506" y="100" />
			<point x="505" y="166" />
			<point x="505" y="210" type="curve"/>
			<point x="505" y="342" type="line"/>
			<point x="508" y="478" type="line"/>
			<point x="493" y="488" type="line"/>
			<point x="417" y="475" type="line"/>
			<point x="200" y="475" type="line"/>
			<point x="197" y="570" />
			<point x="211" y="628" />
			<point x="245" y="662" type="curve"/>
			<point x="273" y="690" />
			<point x="312" y="709" />
			<point x="359" y="712" type="curve"/>
			<point x="402" y="651" type="line"/>
			<point x="421" y="625" />
			<point x="441" y="610" />
			<point x="466" y="610" type="curve"/>
			<point x="493" y="610" />
			<point x="511" y="627" />
			<point x="516" y="649" type="curve"/>
			<point x="515" y="710" />
			<point x="448" y="750" />
			<point x="360" y="750" type="curve"/>
			<point x="299" y="750" />
			<point x="236" y="730" />
			<point x="199" y="692" type="curve"/>
			<point x="148" y="641" />
			<point x="128" y="592" />
			<point x="118" y="477" type="curve"/>
			<point x="34" y="466" type="line"/>
			<point x="34" y="422" type="line"/>
			<point x="117" y="422" type="line"/>
			<point x="117" y="210" type="line"/>
			<point x="117" y="157" />
			<point x="116" y="103" />
			<point x="115" y="50" type="curve"/>
			<point x="36" y="36" type="line"/>
		</contour>
	</outline>
</glyph>
<glyph name="f_j" format="1" >
	<advance width="590"/>
	<outline>
		<contour>
			<point x="36" y="0" type="line"/>
			<point x="283" y="0" type="line"/>
			<point x="283" y="36" type="line"/>
			<point x="204" y="50" type="line"/>
			<point x="203" y="103" />
			<point x="202" y="157" />
			<point x="202" y="210" type="curve"/>
			<point x="202" y="422" type="line"/>
			<point x="421" y="422" type="line"/>
			<point x="423" y="382" />
			<point x="424" y="312" />
			<point x="424" y="257" type="curve"/>
			<point x="424" y="102" type="line"/>
			<point x="424" y="-48" />
			<point x="419" y="-129" />
			<point x="403" y="-171" type="curve"/>
			<point x="398" y="-183" />
			<point x="393" y="-192" />
			<point x="387" y="-198" type="curve"/>
			<point x="364" y="-181" type="line"/>
			<point x="338" y="-161" />
			<point x="316" y="-151" />
			<point x="289" y="-151" type="curve"/>
			<point x="260" y="-151" />
			<point x="239" y="-164" />
			<point x="230" y="-192" type="curve"/>
			<point x="231" y="-218" />
			<point x="259" y="-250" />
			<point x="319" y="-250" type="curve"/>
			<point x="378" y="-250" />
			<point x="408" y="-230" />
			<point x="443" y="-195" type="curve"/>
			<point x="497" y="-141" />
			<point x="505" y="-63" />
			<point x="505" y="100" type="curve"/>
			<point x="505" y="342" type="line"/>
			<point x="508" y="478" type="line"/>
			<point x="493" y="488" type="line"/>
			<point x="417" y="475" type="line"/>
			<point x="200" y="475" type="line"/>
			<point x="197" y="570" />
			<point x="211" y="628" />
			<point x="245" y="662" type="curve"/>
			<point x="273" y="690" />
			<point x="312" y="709" />
			<point x="359" y="712" type="curve"/>
			<point x="402" y="651" type="line"/>
			<point x="421" y="625" />
			<point x="441" y="610" />
			<point x="466" y="610" type="curve"/>
			<point x="493" y="610" />
			<point x="511" y="627" />
			<point x="516" y="649" type="curve"/>
			<point x="515" y="710" />
			<point x="448" y="750" />
			<point x="360" y="750" type="curve"/>
			<point x="299" y="750" />
			<point x="236" y="730" />
			<point x="199" y="692" type="curve"/>
			<point x="148" y="641" />
			<point x="128" y="592" />
			<point x="118" y="477" type="curve"/>
			<point x="34" y="466" type="line"/>
			<point x="34" y="422" type="line"/>
			<point x="117" y="422" type="line"/>
			<point x="117" y="210" type="line"/>
			<point x="117" y="157" />
			<point x="116" y="103" />
			<point x="115" y="50" type="curve"/>
			<point x="36" y="36" type="line"/>
		</contour>
	</outline>
</glyph>
<glyph name="five.numr" format="1" >
	<advance width="370"/>
	<outline>
		<contour>
			<point x="176" y="265" type="curve"/>
			<point x="259" y="265" />
			<point x="324" y="313" />
			<point x="324" y="397" type="curve"/>
			<point x="324" y="483" />
			<point x="262" y="524" />
			<point x="179" y="524" type="curve"/>
			<point x="160" y="524" />
			<point x="140" y="522" />
			<point x="120" y="518" type="curve"/>
			<point x="126" y="600" type="line"/>
			<point x="310" y="600" type="line"/>
			<point x="310" y="670" type="line"/>
			<point x="96" y="670" type="line"/>
			<point x="82" y="485" type="line"/>
			<point x="100" y="473" type="line"/>
			<point x="119" y="477" />
			<point x="140" y="480" />
			<point x="160" y="480" type="curve"/>
			<point x="221" y="480" />
			<point x="251" y="448" />
			<point x="251" y="393" type="curve"/>
			<point x="251" y="334" />
			<point x="217" y="298" />
			<point x="169" y="298" type="curve"/>
			<point x="156" y="298" />
			<point x="143" y="300" />
			<point x="129" y="304" type="curve"/>
			<point x="122" y="339" type="line"/>
			<point x="114" y="376" />
			<point x="103" y="388" />
			<point x="85" y="388" type="curve"/>
			<point x="66" y="388" />
			<point x="52" y="377" />
			<point x="47" y="355" type="curve"/>
			<point x="55" y="304" />
			<point x="99" y="265" />
		</contour>
	</outline>
</glyph>
<glyph name="four.numr" format="1" >
	<advance width="370"/>
	<outline>
		<contour>
			<point x="202" y="274" type="line"/>
			<point x="267" y="274" type="line"/>
			<point x="267" y="375" type="line"/>
			<point x="331" y="375" type="line"/>
			<point x="331" y="432" type="line"/>
			<point x="267" y="432" type="line"/>
			<point x="267" y="677" type="line"/>
			<point x="220" y="677" type="line"/>
			<point x="32" y="421" type="line"/>
			<point x="32" y="375" type="line"/>
			<point x="202" y="375" type="line"/>
		</contour>
		<contour>
			<point x="81" y="432" type="line"/>
			<point x="202" y="606" type="line"/>
			<point x="202" y="432" type="line"/>
		</contour>
	</outline>
</glyph>
<glyph name="g.alt" format="1" >
	<advance width="560"/>
	<outline>
		<contour>
			<point x="135" y="238" type="curve"/>
			<point x="135" y="374" />
			<point x="201" y="431" />
			<point x="282" y="431" type="curve"/>
			<point x="318" y="431" />
			<point x="349" y="420" />
			<point x="390" y="378" type="curve"/>
			<point x="390" y="117" type="line"/>
			<point x="351" y="72" />
			<point x="318" y="54" />
			<point x="274" y="54" type="curve"/>
			<point x="195" y="54" />
			<point x="135" y="115" />
		</contour>
		<contour>
			<point x="244" y="-3" type="curve"/>
			<point x="308" y="-3" />
			<point x="355" y="22" />
			<point x="394" y="78" type="curve"/>
			<point x="395" y="61" />
			<point x="395" y="41" />
			<point x="395" y="23" type="curve"/>
			<point x="395" y="-65" />
			<point x="387" y="-113" />
			<point x="362" y="-150" type="curve"/>
			<point x="338" y="-186" />
			<point x="299" y="-204" />
			<point x="251" y="-204" type="curve"/>
			<point x="222" y="-204" />
			<point x="201" y="-202" />
			<point x="181" y="-198" type="curve"/>
			<point x="168" y="-148" type="line"/>
			<point x="153" y="-97" />
			<point x="142" y="-75" />
			<point x="109" y="-75" type="curve"/>
			<point x="86" y="-75" />
			<point x="70" y="-85" />
			<point x="57" y="-108" type="curve"/>
			<point x="75" y="-207" />
			<point x="147" y="-250" />
			<point x="247" y="-250" type="curve"/>
			<point x="310" y="-250" />
			<point x="368" y="-231" />
			<point x="407" y="-192" type="curve"/>
			<point x="468" y="-131" />
			<point x="478" y="-71" />
			<point x="474" y="103" type="curve"/>
			<point x="474" y="343" type="line"/>
			<point x="477" y="478" type="line"/>
			<point x="461" y="488" type="line"/>
			<point x="396" y="420" type="line"/>
			<point x="359" y="470" />
			<point x="316" y="488" />
			<point x="273" y="488" type="curve"/>
			<point x="138" y="488" />
			<point x="45" y="385" />
			<point x="45" y="231" type="curve"/>
			<point x="45" y="81" />
			<point x="127" y="-3" />
		</contour>
	</outline>
</glyph>
<glyph name="one.numr" format="1" >
	<advance width="370"/>
	<outline>
		<contour>
			<point x="66" y="274" type="line"/>
			<point x="315" y="274" type="line"/>
			<point x="315" y="303" type="line"/>
			<point x="227" y="319" type="line"/>
			<point x="227" y="671" type="line"/>
			<point x="218" y="677" type="line"/>
			<point x="79" y="645" type="line"/>
			<point x="79" y="608" type="line"/>
			<point x="156" y="614" type="line"/>
			<point x="156" y="319" type="line"/>
			<point x="66" y="303" type="line"/>
		</contour>
	</outline>
</glyph>
<glyph name="parenleft.dnom" format="1" >
	<advance width="252"/>
	<outline>
		<contour>
			<point x="118" y="172" type="curve"/>
			<point x="118" y="259" />
			<point x="141" y="335" />
			<point x="215" y="435" type="curve"/>
			<point x="194" y="455" type="line"/>
			<point x="102" y="376" />
			<point x="53" y="282" />
			<point x="53" y="172" type="curve"/>
			<point x="53" y="62" />
			<point x="102" y="-32" />
			<point x="194" y="-109" type="curve"/>
			<point x="215" y="-90" type="line"/>
			<point x="141" y="10" />
			<point x="118" y="86" />
		</contour>
	</outline>
</glyph>
<glyph name="parenleft.numr" format="1" >
	<advance width="252"/>
	<outline>
		<contour>
			<point x="118" y="446" type="curve"/>
			<point x="118" y="533" />
			<point x="141" y="609" />
			<point x="215" y="709" type="curve"/>
			<point x="194" y="729" type="line"/>
			<point x="102" y="650" />
			<point x="53" y="556" />
			<point x="53" y="446" type="curve"/>
			<point x="53" y="336" />
			<point x="102" y="242" />
			<point x="194" y="165" type="curve"/>
			<point x="215" y="184" type="line"/>
			<point x="141" y="284" />
			<point x="118" y="360" />
		</contour>
	</outline>
</glyph>
<glyph name="parenright.dnom" format="1" >
	<advance width="252"/>
	<outline>
		<contour>
			<point x="134" y="172" type="curve"/>
			<point x="134" y="86" />
			<point x="110" y="10" />
			<point x="37" y="-90" type="curve"/>
			<point x="58" y="-109" type="line"/>
			<point x="151" y="-32" />
			<point x="199" y="62" />
			<point x="199" y="172" type="curve"/>
			<point x="199" y="282" />
			<point x="151" y="376" />
			<point x="58" y="455" type="curve"/>
			<point x="37" y="435" type="line"/>
			<point x="110" y="335" />
			<point x="134" y="259" />
		</contour>
	</outline>
</glyph>
<glyph name="parenright.numr" format="1" >
	<advance width="252"/>
	<outline>
		<contour>
			<point x="134" y="446" type="curve"/>
			<point x="134" y="360" />
			<point x="110" y="284" />
			<point x="37" y="184" type="curve"/>
			<point x="58" y="165" type="line"/>
			<point x="151" y="242" />
			<point x="199" y="336" />
			<point x="199" y="446" type="curve"/>
			<point x="199" y="556" />
			<point x="151" y="650" />
			<point x="58" y="729" type="curve"/>
			<point x="37" y="709" type="line"/>
			<point x="110" y="609" />
			<point x="134" y="533" />
		</contour>
	</outline>
</glyph>
<glyph name="period.numr" format="1" >
	<advance width="232"/>
	<outline>
		<contour>
			<point x="116" y="265" type="curve"/>
			<point x="143" y="265" />
			<point x="165" y="288" />
			<point x="165" y="316" type="curve"/>
			<point x="165" y="343" />
			<point x="143" y="367" />
			<point x="116" y="367" type="curve"/>
			<point x="89" y="367" />
			<point x="67" y="343" />
			<point x="67" y="316" type="curve"/>
			<point x="67" y="288" />
			<point x="89" y="265" />
		</contour>
	</outline>
</glyph>
<glyph name="seven.numr" format="1" >
	<advance width="370"/>
	<outline>
		<contour>
			<point x="108" y="274" type="line"/>
			<point x="172" y="274" type="line"/>
			<point x="323" y="629" type="line"/>
			<point x="323" y="670" type="line"/>
			<point x="56" y="670" type="line"/>
			<point x="56" y="600" type="line"/>
			<point x="268" y="600" type="line"/>
			<point x="102" y="280" type="line"/>
		</contour>
	</outline>
</glyph>
<glyph name="six.numr" format="1" >
	<advance width="370"/>
	<outline>
		<contour>
			<point x="193" y="477" type="curve"/>
			<point x="234" y="477" />
			<point x="262" y="454" />
			<point x="262" y="391" type="curve"/>
			<point x="262" y="327" />
			<point x="236" y="298" />
			<point x="197" y="298" type="curve"/>
			<point x="151" y="298" />
			<point x="124" y="344" />
			<point x="123" y="452" type="curve"/>
			<point x="146" y="469" />
			<point x="168" y="477" />
		</contour>
		<contour>
			<point x="196" y="265" type="curve"/>
			<point x="271" y="265" />
			<point x="331" y="311" />
			<point x="331" y="399" type="curve"/>
			<point x="331" y="474" />
			<point x="286" y="520" />
			<point x="211" y="520" type="curve"/>
			<point x="179" y="520" />
			<point x="150" y="510" />
			<point x="126" y="489" type="curve"/>
			<point x="137" y="568" />
			<point x="192" y="633" />
			<point x="300" y="654" type="curve"/>
			<point x="296" y="683" type="line"/>
			<point x="135" y="673" />
			<point x="49" y="550" />
			<point x="49" y="435" type="curve"/>
			<point x="49" y="335" />
			<point x="105" y="265" />
		</contour>
	</outline>
</glyph>
<glyph name="three.numr" format="1" >
	<advance width="370"/>
	<outline>
		<contour>
			<point x="179" y="265" type="curve"/>
			<point x="253" y="265" />
			<point x="325" y="298" />
			<point x="325" y="380" type="curve"/>
			<point x="325" y="436" />
			<point x="292" y="473" />
			<point x="232" y="484" type="curve"/>
			<point x="277" y="496" />
			<point x="307" y="535" />
			<point x="307" y="582" type="curve"/>
			<point x="307" y="641" />
			<point x="257" y="680" />
			<point x="183" y="680" type="curve"/>
			<point x="120" y="680" />
			<point x="67" y="651" />
			<point x="59" y="587" type="curve"/>
			<point x="66" y="573" />
			<point x="79" y="566" />
			<point x="93" y="566" type="curve"/>
			<point x="111" y="566" />
			<point x="127" y="578" />
			<point x="132" y="608" type="curve"/>
			<point x="139" y="644" type="line"/>
			<point x="148" y="645" />
			<point x="156" y="646" />
			<point x="163" y="646" type="curve"/>
			<point x="208" y="646" />
			<point x="236" y="621" />
			<point x="236" y="574" type="curve"/>
			<point x="236" y="527" />
			<point x="209" y="502" />
			<point x="154" y="502" type="curve"/>
			<point x="129" y="502" type="line"/>
			<point x="129" y="462" type="line"/>
			<point x="159" y="462" type="line"/>
			<point x="224" y="462" />
			<point x="252" y="432" />
			<point x="252" y="383" type="curve"/>
			<point x="252" y="330" />
			<point x="219" y="298" />
			<point x="160" y="298" type="curve"/>
			<point x="149" y="298" />
			<point x="138" y="299" />
			<point x="127" y="302" type="curve"/>
			<point x="119" y="338" type="line"/>
			<point x="112" y="376" />
			<point x="98" y="386" />
			<point x="80" y="386" type="curve"/>
			<point x="66" y="386" />
			<point x="52" y="380" />
			<point x="45" y="360" type="curve"/>
			<point x="55" y="299" />
			<point x="101" y="265" />
		</contour>
	</outline>
</glyph>
<glyph name="two.numr" format="1" >
	<advance width="370"/>
	<outline>
		<contour>
			<point x="54" y="274" type="line"/>
			<point x="323" y="274" type="line"/>
			<point x="323" y="344" type="line"/>
			<point x="128" y="344" type="line"/>
			<point x="179" y="391" type="line"/>
			<point x="269" y="474" />
			<point x="308" y="518" />
			<point x="308" y="576" type="curve"/>
			<point x="308" y="629" />
			<point x="274" y="680" />
			<point x="187" y="680" type="curve"/>
			<point x="116" y="680" />
			<point x="53" y="647" />
			<point x="48" y="579" type="curve"/>
			<point x="56" y="564" />
			<point x="69" y="555" />
			<point x="85" y="555" type="curve"/>
			<point x="103" y="555" />
			<point x="115" y="566" />
			<point x="124" y="605" type="curve"/>
			<point x="134" y="644" type="line"/>
			<point x="143" y="645" />
			<point x="152" y="646" />
			<point x="160" y="646" type="curve"/>
			<point x="207" y="646" />
			<point x="235" y="619" />
			<point x="235" y="568" type="curve"/>
			<point x="235" y="517" />
			<point x="206" y="470" />
			<point x="147" y="413" type="curve"/>
			<point x="54" y="324" type="line"/>
		</contour>
	</outline>
</glyph>
<glyph name="zero.dnom" format="1" >
	<advance width="370"/>
	<outline>
		<contour>
			<point x="186" y="-9" type="curve"/>
			<point x="257" y="-9" />
			<point x="325" y="53" />
			<point x="325" y="198" type="curve"/>
			<point x="325" y="344" />
			<point x="257" y="406" />
			<point x="186" y="406" type="curve"/>
			<point x="114" y="406" />
			<point x="45" y="344" />
			<point x="45" y="198" type="curve"/>
			<point x="45" y="53" />
			<point x="114" y="-9" />
		</contour>
		<contour>
			<point x="186" y="24" type="curve"/>
			<point x="151" y="24" />
			<point x="118" y="55" />
			<point x="118" y="198" type="curve"/>
			<point x="118" y="342" />
			<point x="151" y="372" />
			<point x="186" y="372" type="curve"/>
			<point x="221" y="372" />
			<point x="252" y="341" />
			<point x="252" y="198" type="curve"/>
			<point x="252" y="55" />
			<point x="221" y="24" />
		</contour>
	</outline>
</glyph>
<glyph name="zero.numr" format="1" >
	<advance width="370"/>
	<outline>
		<contour>
			<point x="186" y="265" type="curve"/>
			<point x="257" y="265" />
			<point x="325" y="327" />
			<point x="325" y="472" type="curve"/>
			<point x="325" y="618" />
			<point x="257" y="680" />
			<point x="186" y="680" type="curve"/>
			<point x="114" y="680" />
			<point x="45" y="618" />
			<point x="45" y="472" type="curve"/>
			<point x="45" y="327" />
			<point x="114" y="265" />
		</contour>
		<contour>
			<point x="186" y="298" type="curve"/>
			<point x="151" y="298" />
			<point x="118" y="329" />
			<point x="118" y="472" type="curve"/>
			<point x="118" y="616" />
			<point x="151" y="646" />
			<point x="186" y="646" type="curve"/>
			<point x="221" y="646" />
			<point x="252" y="615" />
			<point x="252" y="472" type="curve"/>
			<point x="252" y="329" />
			<point x="221" y="298" />
		</contour>
	</outline>
</glyph>
